<svg width="15" height="12" viewBox="0 0 15 12" fill="none" xmlns="http://www.w3.org/2000/svg">
<path d="M13.8014 1.1895C14.0826 1.47079 14.2406 1.85225 14.2406 2.25C14.2406 2.64775 14.0826 3.02921 13.8014 3.3105L6.30144 10.8105C6.02014 11.0917 5.63868 11.2497 5.24094 11.2497C4.84319 11.2497 4.46173 11.0917 4.18044 10.8105L1.18044 7.8105C0.907199 7.5276 0.756008 7.14869 0.759426 6.7554C0.762843 6.3621 0.920597 5.98588 1.19871 5.70777C1.47682 5.42966 1.85304 5.27191 2.24633 5.26849C2.63963 5.26507 3.01853 5.41626 3.30144 5.6895L5.24094 7.629L11.6804 1.1895C11.9617 0.908294 12.3432 0.75032 12.7409 0.75032C13.1387 0.75032 13.5201 0.908294 13.8014 1.1895Z" fill="white"/>
</svg>
